HIERARCHY
ROOT pelvis
{
  OFFSET 0 100 0
  CHANNELS 6 Xposition Yposition Zposition Zrotation Xrotation Yrotation
  JOINT pelvis_right_femur
  {
    OFFSET -10.78128 -3.44521 -0.5502486
    CHANNELS 3 Zrotation Xrotation Yrotation
    JOINT right_femur_tibia
    {
      OFFSET -0.8047443 -44.0398 -0.1307829
      CHANNELS 3 Zrotation Xrotation Yrotation
      JOINT right_tibia_foot
      {
        OFFSET 3.006224 -47.83518 -5
        CHANNELS 3 Zrotation Xrotation Yrotation
        End Site
        {
          OFFSET 0 -5 15
        }
      }
    }
  }
  JOINT pelvis_left_femur
  {
    OFFSET 10.78128 -3.44521 -0.5502486
    CHANNELS 3 Zrotation Xrotation Yrotation
    JOINT left_femur_tibia
    {
      OFFSET 0.8047443 -44.0398 -0.1307829
      CHANNELS 3 Zrotation Xrotation Yrotation
      JOINT left_tibia_foot
      {
        OFFSET -4.370144 -48.10324 -4.275266
        CHANNELS 3 Zrotation Xrotation Yrotation
        End Site
        {
          OFFSET 0 -5 15
        }
      }
    }
  }
  JOINT pelvis_spine1
  {
    OFFSET 0 6.468898 -3.129235
    CHANNELS 3 Zrotation Xrotation Yrotation
    JOINT spine1
    {
      OFFSET 0 23.15396 4.99043
      CHANNELS 3 Zrotation Xrotation Yrotation
      JOINT spine2
      {
        OFFSET 0 20.79997 -5.064912
        CHANNELS 3 Zrotation Xrotation Yrotation
        JOINT neck
        {
          OFFSET 0 14.38658 9.616178
          CHANNELS 3 Zrotation Xrotation Yrotation
          End Site
          {
            OFFSET 0 20 0
          }
        }
      }
      JOINT right_manubrium
      {
        OFFSET -5.722621 16.35077 3.967754
        CHANNELS 3 Zrotation Xrotation Yrotation
        JOINT right_clavicle
        {
          OFFSET -13.16364 1.694482 -4.693211
          CHANNELS 3 Zrotation Xrotation Yrotation
          JOINT right_humerus
          {
            OFFSET -28.5034 -0.3100689 -2.792744
            CHANNELS 3 Zrotation Xrotation Yrotation
            JOINT right_radius
            {
              OFFSET -25.15693 0.02248979 -1.271978
              CHANNELS 3 Zrotation Xrotation Yrotation
              End Site
              {
                OFFSET -15 0 0
              }
            }
          }
        }
      }
      JOINT left_manubrium
      {
        OFFSET 5.722621 16.35077 3.967754
        CHANNELS 3 Zrotation Xrotation Yrotation
        JOINT left_clavicle
        {
          OFFSET 13.16364 1.694482 -4.693211
          CHANNELS 3 Zrotation Xrotation Yrotation
          JOINT left_humerus
          {
            OFFSET 29.39168 -1.063119 -2.237045
            CHANNELS 3 Zrotation Xrotation Yrotation
            JOINT left_radius
            {
              OFFSET 24.59957 -0.9528479 0.9047498
              CHANNELS 3 Zrotation Xrotation Yrotation
              End Site
              {
                OFFSET 15 -0 -0
              }
            }
          }
        }
      }
    }
  }
}
MOTION
Frames: 7
Frame Time: 0.0416666666667
0 103.5113 0 0.811908 -0.8182577 0.1571632 3.263193 -15.51295 8.186418 -0 37.01554 -0 -6.135048 -15.20812 -2.565339 -7.190445 5.128253 -22.3677 -0 3.260809 -0 7.49928 -18.03077 26.29062 -1.709157 -2.323886 4.525778 2.869883 9.665786 -7.640189 0.6948977 21.51128 7.048987 4.146042 -26.78059 8.256857 5.148228 -20.08944 11.38105 86.44999 36.83749 -18.8819 -0 0 13.52903 -6.097714 6.273017 5.03228 6.228619 -21.75156 -1.354598 -95.38199 25.67619 25.02665 0 0 -16.2619 10.34334 17.23444 2.742348
0.4483029 103.3412 1.110179 0.8319017 -0.7723189 0.3156017 3.431528 -16.85533 8.630287 -0 38.58684 -0 -6.101973 -14.99785 -2.829954 -7.36517 6.616776 -22.93119 -0 4.77514 -0 7.631603 -18.20815 26.42253 -1.743633 -2.323696 4.5152 2.897828 9.526647 -7.584874 0.710654 21.56677 7.065065 4.159687 -26.93944 8.334744 5.251377 -20.08665 11.32455 86.22283 37.09344 -18.68112 -0 0 13.60803 -5.653986 6.031557 4.942135 6.234647 -21.57486 -1.185733 -95.78217 26.04528 25.3853 0 0 -15.88391 10.26836 17.43068 2.910672
0.7907093 103.1515 2.594282 0.7087582 -0.7679327 0.5486169 3.643043 -20.46149 7.937828 -0 36.93611 -0 -6.088121 -12.99266 -3.234143 -7.085499 10.07124 -22.22894 -0 5.907666 -0 6.879818 -19.09683 25.16934 -1.728211 -2.214563 4.439253 2.814422 9.656726 -7.767297 0.7200872 21.43881 7.135414 4.111607 -26.32625 8.293239 5.191973 -19.60149 11.36982 86.83474 36.72671 -19.55138 -0 0 13.08579 -6.925875 7.036004 5.122989 6.280003 -21.88471 -1.50342 -94.40981 25.85084 23.67928 0 0 -17.51249 9.684568 16.65862 3.479464
1.076639 102.8265 4.318239 0.5802488 -0.6267892 0.7963864 3.812702 -22.47736 7.317009 -0 34.24055 -0 -6.257589 -12.18775 -3.327011 -6.798932 11.64699 -21.61951 -0 5.718686 -0 6.505299 -19.62722 24.36785 -1.735474 -2.164861 4.359761 2.804939 9.655927 -7.86474 0.7313948 21.40395 7.183474 4.097626 -26.11492 8.316785 5.206442 -19.31433 11.36132 87.12956 36.66016 -20.02029 -0 0 12.74778 -7.298647 7.397709 5.12921 6.324232 -22.0106 -1.595203 -93.83034 25.91807 22.84819 0 0 -18.27366 9.436523 16.3832 3.745927
1.30131 102.2758 6.468669 0.4094206 -0.5400503 1.073487 3.902239 -24.74437 6.269422 -0 30.33696 -0 -6.423885 -10.89765 -3.406016 -6.390991 13.40119 -20.50395 -0 5.296733 -0 5.785042 -20.25338 23.10732 -1.748741 -2.104989 4.220229 2.814856 9.634497 -8.0147 0.7473873 21.36893 7.25376 4.084898 -25.88245 8.365803 5.237065 -18.89883 11.33803 87.57245 36.6071 -20.72509 -0 0 12.21095 -7.667188 7.810043 5.081891 6.400571 -22.20082 -1.701811 -93.0546 26.04801 21.67625 0 0 -19.3302 9.176009 16.07101 4.026983
1.474062 101.5027 9.083126 0.2474389 -0.5237859 1.380293 3.912551 -26.72493 5.170944 -0 26.50167 -0 -6.546779 -9.532343 -3.477884 -6.010477 14.95538 -19.2839 -0 5.046346 -0 4.948224 -20.77386 21.7795 -1.763825 -2.059142 4.068297 2.844611 9.596171 -8.163213 0.7620127 21.34914 7.320807 4.079558 -25.72783 8.425044 5.275612 -18.50836 11.30655 88.00211 36.59608 -21.41002 -0 0 11.66643 -7.864053 8.102156 4.98681 6.483 -22.38559 -1.778277 -92.38064 26.19999 20.6023 0 0 -20.28344 9.013315 15.85308 4.204523
1.598937 100.5135 12.27248 0.08859057 -0.6332893 1.724543 3.824892 -28.59736 3.905761 -0 22.59449 -0 -6.590033 -7.807186 -3.587166 -5.639165 16.53741 -17.7903 -0 5.249884 -0 3.823079 -21.1996 20.19218 -1.781653 -2.013395 3.881478 2.890846 9.544718 -8.339458 0.778031 21.33339 7.397571 4.077225 -25.5874 8.498895 5.322901 -18.06204 11.26596 88.5099 36.59785 -22.21372 -0 0 11.01567 -8.00577 8.381872 4.847957 6.583874 -22.60602 -1.855336 -91.63355 26.37626 19.37923 0 0 -21.35886 8.8823 15.64701 4.346727
